<?xml version="1.0" encoding="utf-8"?>
<!-- Generator: Adobe Illustrator 16.0.3, SVG Export Plug-In . SVG Version: 6.00 Build 0)  -->
<!DOCTYPE svg PUBLIC "-//W3C//DTD SVG 1.1//EN" "http://www.w3.org/Graphics/SVG/1.1/DTD/svg11.dtd">
<svg version="1.1" id="Layer_1" xmlns="http://www.w3.org/2000/svg" xmlns:xlink="http://www.w3.org/1999/xlink" x="0px" y="0px"
	 width="285.429px" height="201px" viewBox="0 0 285.429 201" enable-background="new 0 0 285.429 201" xml:space="preserve">
<g>
	<g>
		
			<linearGradient id="SVGID_1_" gradientUnits="userSpaceOnUse" x1="655.2656" y1="9.4902" x2="655.2656" y2="1.9204" gradientTransform="matrix(-0.9487 0.3162 0.3162 0.9487 731.6109 -116.0726)">
			<stop  offset="0" style="stop-color:#A6CE39"/>
			<stop  offset="0.9839" style="stop-color:#78A842"/>
		</linearGradient>
		<path fill="url(#SVGID_1_)" d="M114.649,93.099c0,0-2.464-0.93-4.221,7.232c0,0-1.311,1.803-1.613,0.601
			c-1.103-4.391,5.117-9.121,5.117-9.121S115.316,92.286,114.649,93.099z"/>
	</g>
	
		<linearGradient id="SVGID_2_" gradientUnits="userSpaceOnUse" x1="665.5557" y1="-6.7515" x2="660.6998" y2="-0.4594" gradientTransform="matrix(-0.9665 0.2568 0.2568 0.9665 762.9481 -84.8718)">
		<stop  offset="0" style="stop-color:#A6CE39"/>
		<stop  offset="1" style="stop-color:#78A842"/>
	</linearGradient>
	<path fill="url(#SVGID_2_)" d="M113.76,92.856c-3.487-7.573,2.974-13.234,11.602-13.851c9.094-0.648,17.142,2.732,17.142,2.732
		S122.053,82.256,113.76,92.856z"/>
	
		<linearGradient id="SVGID_3_" gradientUnits="userSpaceOnUse" x1="660.6914" y1="-0.1655" x2="655.3571" y2="7.2205" gradientTransform="matrix(-0.9665 0.2568 0.2568 0.9665 762.9481 -84.8718)">
		<stop  offset="0" style="stop-color:#A6CE39"/>
		<stop  offset="1" style="stop-color:#78A842"/>
	</linearGradient>
	<path fill="url(#SVGID_3_)" d="M142.503,81.738c0,0-8.683,4.259-13.309,11.703c-5.405,8.696-13.912,2.516-15.292-0.282
		c-0.05-0.101-0.097-0.202-0.143-0.302C122.053,82.256,142.503,81.738,142.503,81.738z"/>
	
		<radialGradient id="SVGID_4_" cx="662.4229" cy="-2.9038" r="5.6039" gradientTransform="matrix(-0.9665 0.2568 0.2568 0.9665 762.9481 -84.8718)" gradientUnits="userSpaceOnUse">
		<stop  offset="0" style="stop-color:#FFFFFF"/>
		<stop  offset="1" style="stop-color:#A6CE39"/>
	</radialGradient>
	<path fill="url(#SVGID_4_)" d="M129.389,80.057c0,0-10.139,0.997-14.497,5.904C117.913,79.214,129.389,80.057,129.389,80.057z"/>
	<g>
		
			<linearGradient id="SVGID_5_" gradientUnits="userSpaceOnUse" x1="591.2412" y1="-27.5313" x2="595.877" y2="-27.5313" gradientTransform="matrix(-0.8961 0.4438 0.4438 0.8961 674.0748 -151.9952)">
			<stop  offset="0" style="stop-color:#A6CE39"/>
			<stop  offset="0.3925" style="stop-color:#94BF3D"/>
			<stop  offset="0.9839" style="stop-color:#78A842"/>
		</linearGradient>
		<path fill="url(#SVGID_5_)" d="M127.902,87.793c0.321,0.65,1.513,0.717,2.66,0.149c1.147-0.568,1.815-1.556,1.494-2.206
			c-0.322-0.651-1.514-0.719-2.66-0.15C128.249,86.153,127.581,87.142,127.902,87.793z"/>
		
			<radialGradient id="SVGID_6_" cx="568.6914" cy="-9.8169" r="1.4259" gradientTransform="matrix(-1.0123 0.5015 0.466 0.9407 709.8049 -188.8157)" gradientUnits="userSpaceOnUse">
			<stop  offset="0" style="stop-color:#FFFFFF"/>
			<stop  offset="1" style="stop-color:#A6CE39"/>
		</radialGradient>
		<path fill="url(#SVGID_6_)" d="M128.477,87.421c0.255,0.518,1.258,0.542,2.239,0.057c0.981-0.486,1.568-1.299,1.313-1.814
			c-0.257-0.518-1.26-0.543-2.24-0.059C128.808,86.091,128.22,86.905,128.477,87.421z"/>
		
			<linearGradient id="SVGID_7_" gradientUnits="userSpaceOnUse" x1="796.5693" y1="-99.8643" x2="797.9063" y2="-99.8643" gradientTransform="matrix(-0.7871 0.0762 0.0682 0.704 765.2993 95.3983)">
			<stop  offset="0.0054" style="stop-color:#FFFFFF"/>
			<stop  offset="0.9839" style="stop-color:#A6CE39"/>
		</linearGradient>
		<path fill="url(#SVGID_7_)" d="M130.426,85.913c0.017,0.173,0.267,0.292,0.556,0.265c0.291-0.029,0.511-0.192,0.496-0.366
			c-0.017-0.174-0.267-0.292-0.557-0.263C130.631,85.576,130.41,85.74,130.426,85.913z"/>
		
			<linearGradient id="SVGID_8_" gradientUnits="userSpaceOnUse" x1="804.8076" y1="-94.7212" x2="805.5762" y2="-94.7212" gradientTransform="matrix(-0.7883 0.0632 0.0565 0.7051 769.9304 101.7794)">
			<stop  offset="0.0054" style="stop-color:#FFFFFF"/>
			<stop  offset="0.9839" style="stop-color:#A6CE39"/>
		</linearGradient>
		<path fill="url(#SVGID_8_)" d="M129.57,85.912c0.008,0.1,0.151,0.169,0.317,0.156c0.168-0.014,0.296-0.105,0.289-0.205
			c-0.009-0.1-0.15-0.17-0.317-0.157C129.692,85.719,129.563,85.811,129.57,85.912z"/>
	</g>
	<g>
		
			<linearGradient id="SVGID_9_" gradientUnits="userSpaceOnUse" x1="597.3906" y1="-26.8604" x2="600.4326" y2="-26.8604" gradientTransform="matrix(-0.8961 0.4438 0.4438 0.8961 674.0748 -151.9952)">
			<stop  offset="0" style="stop-color:#A6CE39"/>
			<stop  offset="0.3925" style="stop-color:#94BF3D"/>
			<stop  offset="0.9839" style="stop-color:#78A842"/>
		</linearGradient>
		<path fill="url(#SVGID_9_)" d="M124.118,90.417c0.211,0.427,0.993,0.47,1.746,0.099c0.752-0.374,1.191-1.021,0.98-1.448
			c-0.21-0.428-0.993-0.471-1.745-0.099S123.907,89.99,124.118,90.417z"/>
		
			<radialGradient id="SVGID_10_" cx="573.2578" cy="-9.2168" r="0.9352" gradientTransform="matrix(-1.0123 0.5015 0.466 0.9407 709.8049 -188.8157)" gradientUnits="userSpaceOnUse">
			<stop  offset="0" style="stop-color:#FFFFFF"/>
			<stop  offset="1" style="stop-color:#A6CE39"/>
		</radialGradient>
		<path fill="url(#SVGID_10_)" d="M124.494,90.173c0.169,0.339,0.826,0.354,1.47,0.036c0.644-0.317,1.028-0.851,0.86-1.191
			c-0.168-0.338-0.825-0.355-1.469-0.037C124.712,89.301,124.326,89.833,124.494,90.173z"/>
		
			<linearGradient id="SVGID_11_" gradientUnits="userSpaceOnUse" x1="803.2832" y1="-95.8984" x2="804.1592" y2="-95.8984" gradientTransform="matrix(-0.7871 0.0762 0.0682 0.704 765.2993 95.3983)">
			<stop  offset="0.0054" style="stop-color:#FFFFFF"/>
			<stop  offset="0.9839" style="stop-color:#A6CE39"/>
		</linearGradient>
		<path fill="url(#SVGID_11_)" d="M125.774,89.183c0.01,0.115,0.175,0.192,0.366,0.173c0.19-0.019,0.334-0.125,0.324-0.239
			c-0.011-0.114-0.174-0.192-0.366-0.173C125.909,88.962,125.764,89.069,125.774,89.183z"/>
		
			<linearGradient id="SVGID_12_" gradientUnits="userSpaceOnUse" x1="810.8936" y1="-90.6035" x2="811.3994" y2="-90.6035" gradientTransform="matrix(-0.7883 0.0632 0.0565 0.7051 769.9304 101.7794)">
			<stop  offset="0.0054" style="stop-color:#FFFFFF"/>
			<stop  offset="0.9839" style="stop-color:#A6CE39"/>
		</linearGradient>
		<path fill="url(#SVGID_12_)" d="M125.212,89.182c0.006,0.066,0.099,0.112,0.208,0.104c0.11-0.009,0.195-0.069,0.191-0.135
			c-0.006-0.064-0.099-0.11-0.209-0.102C125.292,89.057,125.208,89.116,125.212,89.182z"/>
	</g>
</g>
<g>
	
		<linearGradient id="SVGID_13_" gradientUnits="userSpaceOnUse" x1="-193.9771" y1="75.2041" x2="-162.2368" y2="75.2041" gradientTransform="matrix(1 0 0 1 245.7109 0)">
		<stop  offset="0" style="stop-color:#A6CE39"/>
		<stop  offset="0.9839" style="stop-color:#78A842"/>
	</linearGradient>
	<path fill="url(#SVGID_13_)" d="M64.683,74.379c0,0,0.276-0.105,0.843-0.192c0.555-0.084,1.488-0.057,2.464,0.585
		c0.957,0.649,1.789,1.887,2.199,3.456c0.408,1.564,0.475,3.485-0.203,5.496c-0.344,0.998-0.894,2.02-1.729,2.91
		c-0.836,0.886-1.989,1.586-3.27,1.943c-0.321,0.105-0.623,0.13-0.942,0.197c-0.316,0.05-0.631,0.132-0.96,0.15
		c-0.662,0.014-1.339,0.088-2.03-0.035c-0.699-0.045-1.381-0.257-2.078-0.462c-0.663-0.281-1.356-0.559-1.962-0.99
		c-1.237-0.811-2.347-1.895-3.153-3.18c-0.821-1.276-1.423-2.71-1.783-4.229c-0.366-1.52-0.437-3.132-0.237-4.754l0.078-0.61
		c0.034-0.196,0.08-0.379,0.121-0.569c0.085-0.378,0.17-0.756,0.256-1.137c0.113-0.374,0.227-0.749,0.342-1.125l0.177-0.563
		l0.22-0.555c1.139-2.948,3.007-5.701,5.693-7.475c1.312-0.912,2.874-1.459,4.408-1.681c1.551-0.266,3.07-0.023,4.454,0.307
		c0.337,0.113,0.67,0.227,1.002,0.339l0.494,0.17c0.159,0.063,0.304,0.145,0.456,0.216c0.596,0.305,1.193,0.553,1.751,0.918
		c0.28,0.171,0.558,0.34,0.834,0.509c0.274,0.171,0.517,0.397,0.771,0.593c0.247,0.206,0.508,0.394,0.731,0.613
		c0.219,0.225,0.435,0.447,0.649,0.67c1.679,1.806,2.683,3.791,3.479,5.559c0.789,1.782,1.387,3.395,1.983,4.773
		c0.285,0.698,0.592,1.317,0.863,1.902c0.304,0.558,0.561,1.091,0.846,1.53c0.54,0.906,1.077,1.528,1.423,1.974
		c0.394,0.397,0.602,0.607,0.602,0.607s-0.245-0.173-0.707-0.498c-0.418-0.379-1.07-0.92-1.766-1.759
		c-0.364-0.406-0.705-0.904-1.104-1.436c-0.36-0.551-0.771-1.147-1.153-1.811c-0.795-1.314-1.606-2.856-2.559-4.471
		c-0.955-1.606-2.08-3.297-3.607-4.65c-0.191-0.165-0.385-0.333-0.58-0.501c-0.198-0.163-0.423-0.29-0.634-0.438
		c-0.219-0.138-0.417-0.304-0.655-0.423c-0.238-0.118-0.478-0.238-0.72-0.358c-0.464-0.261-1.011-0.435-1.524-0.657
		c-0.131-0.05-0.261-0.113-0.392-0.154l-0.397-0.102c-0.263-0.071-0.529-0.143-0.796-0.214c-2.141-0.433-4.39-0.089-6.249,1.277
		c-1.875,1.326-3.353,3.493-4.294,5.953l-0.186,0.458l-0.148,0.473l-0.296,0.942c-0.075,0.32-0.15,0.64-0.225,0.957
		c-0.036,0.159-0.082,0.32-0.11,0.475l-0.062,0.446c-0.167,1.184-0.159,2.408,0.082,3.57c0.463,2.316,1.632,4.437,3.317,5.656
		c0.399,0.341,0.867,0.547,1.311,0.79c0.475,0.167,0.938,0.371,1.437,0.435c0.483,0.141,0.993,0.109,1.489,0.153
		c0.249,0.012,0.501-0.039,0.75-0.053c0.243-0.03,0.514-0.024,0.731-0.079c0.9-0.165,1.711-0.543,2.375-1.104
		c0.657-0.566,1.173-1.287,1.542-2.055c0.739-1.546,0.917-3.225,0.747-4.621c-0.169-1.406-0.718-2.558-1.443-3.237
		c-0.736-0.672-1.571-0.858-2.116-0.868C64.98,74.327,64.683,74.379,64.683,74.379z"/>
</g>
<g>
	<g>
		
			<linearGradient id="SVGID_14_" gradientUnits="userSpaceOnUse" x1="556.4199" y1="-44.0327" x2="556.4199" y2="-56.7368" gradientTransform="matrix(-0.8298 0.5581 0.5581 0.8298 664.0118 -208.358)">
			<stop  offset="0" style="stop-color:#A6CE39"/>
			<stop  offset="0.9839" style="stop-color:#78A842"/>
		</linearGradient>
		<path fill="url(#SVGID_14_)" d="M177.335,53.521c0,0-4.402-0.399-3.584,13.588c0,0-1.312,3.503-2.34,1.694
			c-3.751-6.605,4.187-17.044,4.187-17.044S178.049,51.908,177.335,53.521z"/>
	</g>
	
		<linearGradient id="SVGID_15_" gradientUnits="userSpaceOnUse" x1="563.001" y1="-79.043" x2="554.8526" y2="-68.4845" gradientTransform="matrix(-0.8628 0.5056 0.5056 0.8628 702.3341 -186.399)">
		<stop  offset="0" style="stop-color:#A6CE39"/>
		<stop  offset="1" style="stop-color:#78A842"/>
	</linearGradient>
	<path fill="url(#SVGID_15_)" d="M175.788,53.527c-9.034-10.682-1.123-22.734,12.551-27.597c14.417-5.127,28.947-3.266,28.947-3.266
		S184.447,32.667,175.788,53.527z"/>
	
		<linearGradient id="SVGID_16_" gradientUnits="userSpaceOnUse" x1="554.8418" y1="-67.9893" x2="545.8904" y2="-55.5949" gradientTransform="matrix(-0.8628 0.5056 0.5056 0.8628 702.3341 -186.399)">
		<stop  offset="0" style="stop-color:#A6CE39"/>
		<stop  offset="1" style="stop-color:#78A842"/>
	</linearGradient>
	<path fill="url(#SVGID_16_)" d="M217.286,22.664c0,0-12.132,10.78-16.276,24.89c-4.842,16.486-21.372,10.306-24.855,6.397
		c-0.126-0.141-0.247-0.282-0.367-0.424C184.447,32.667,217.286,22.664,217.286,22.664z"/>
	
		<radialGradient id="SVGID_17_" cx="557.7451" cy="-72.5845" r="9.4037" gradientTransform="matrix(-0.8628 0.5056 0.5056 0.8628 702.3341 -186.399)" gradientUnits="userSpaceOnUse">
		<stop  offset="0" style="stop-color:#FFFFFF"/>
		<stop  offset="1" style="stop-color:#A6CE39"/>
	</radialGradient>
	<path fill="url(#SVGID_17_)" d="M195.323,25.825c0,0-15.949,6.153-20.796,16.043C176.387,29.605,195.323,25.825,195.323,25.825z"/>
	<g>
		
			<linearGradient id="SVGID_18_" gradientUnits="userSpaceOnUse" x1="469.7266" y1="-70.8271" x2="477.5039" y2="-70.8271" gradientTransform="matrix(-0.745 0.6671 0.6671 0.745 599.377 -226.776)">
			<stop  offset="0" style="stop-color:#A6CE39"/>
			<stop  offset="0.3925" style="stop-color:#94BF3D"/>
			<stop  offset="0.9839" style="stop-color:#78A842"/>
		</linearGradient>
		<path fill="url(#SVGID_18_)" d="M196.388,39c0.813,0.908,2.769,0.482,4.37-0.951c1.6-1.433,2.238-3.331,1.425-4.237
			c-0.813-0.908-2.77-0.483-4.369,0.951C196.213,36.194,195.575,38.093,196.388,39z"/>
		
			<radialGradient id="SVGID_19_" cx="462.5117" cy="-51.0029" r="2.3933" gradientTransform="matrix(-0.8416 0.7537 0.7003 0.7821 623.6813 -271.5152)" gradientUnits="userSpaceOnUse">
			<stop  offset="0" style="stop-color:#FFFFFF"/>
			<stop  offset="1" style="stop-color:#A6CE39"/>
		</radialGradient>
		<path fill="url(#SVGID_19_)" d="M197.149,38.143c0.646,0.722,2.279,0.313,3.647-0.913c1.369-1.226,1.954-2.804,1.308-3.523
			c-0.646-0.722-2.278-0.313-3.647,0.911C197.09,35.843,196.504,37.421,197.149,38.143z"/>
		
			<linearGradient id="SVGID_20_" gradientUnits="userSpaceOnUse" x1="674.0527" y1="-216.8184" x2="676.2949" y2="-216.8184" gradientTransform="matrix(-0.7381 0.2837 0.2538 0.6602 753.8295 -13.8931)">
			<stop  offset="0.0054" style="stop-color:#FFFFFF"/>
			<stop  offset="0.9839" style="stop-color:#A6CE39"/>
		</linearGradient>
		<path fill="url(#SVGID_20_)" d="M199.627,34.828c0.105,0.273,0.561,0.353,1.018,0.178c0.457-0.177,0.742-0.54,0.638-0.813
			c-0.105-0.273-0.562-0.353-1.018-0.177C199.807,34.191,199.522,34.556,199.627,34.828z"/>
		
			<linearGradient id="SVGID_21_" gradientUnits="userSpaceOnUse" x1="684.9824" y1="-213.0947" x2="686.2734" y2="-213.0947" gradientTransform="matrix(-0.7427 0.2714 0.2428 0.6643 759.6776 -9.4863)">
			<stop  offset="0.0054" style="stop-color:#FFFFFF"/>
			<stop  offset="0.9839" style="stop-color:#A6CE39"/>
		</linearGradient>
		<path fill="url(#SVGID_21_)" d="M198.243,35.21c0.058,0.158,0.319,0.208,0.583,0.11c0.264-0.097,0.432-0.303,0.375-0.461
			c-0.059-0.158-0.32-0.208-0.584-0.111C198.353,34.845,198.185,35.051,198.243,35.21z"/>
	</g>
	<g>
		
			<linearGradient id="SVGID_22_" gradientUnits="userSpaceOnUse" x1="480.0449" y1="-69.6997" x2="485.1475" y2="-69.6997" gradientTransform="matrix(-0.745 0.6671 0.6671 0.745 599.377 -226.776)">
			<stop  offset="0" style="stop-color:#A6CE39"/>
			<stop  offset="0.3925" style="stop-color:#94BF3D"/>
			<stop  offset="0.9839" style="stop-color:#78A842"/>
		</linearGradient>
		<path fill="url(#SVGID_22_)" d="M191.445,44.939c0.533,0.595,1.816,0.316,2.866-0.624c1.05-0.94,1.468-2.185,0.935-2.781
			c-0.533-0.595-1.816-0.315-2.866,0.624C191.331,43.098,190.912,44.344,191.445,44.939z"/>
		
			<radialGradient id="SVGID_23_" cx="470.1729" cy="-49.9951" r="1.5704" gradientTransform="matrix(-0.8416 0.7537 0.7003 0.7821 623.6813 -271.5152)" gradientUnits="userSpaceOnUse">
			<stop  offset="0" style="stop-color:#FFFFFF"/>
			<stop  offset="1" style="stop-color:#A6CE39"/>
		</radialGradient>
		<path fill="url(#SVGID_23_)" d="M191.945,44.377c0.423,0.473,1.494,0.204,2.392-0.599c0.897-0.804,1.282-1.839,0.858-2.312
			c-0.423-0.473-1.495-0.205-2.392,0.599C191.905,42.868,191.521,43.903,191.945,44.377z"/>
		
			<linearGradient id="SVGID_24_" gradientUnits="userSpaceOnUse" x1="685.3203" y1="-210.1592" x2="686.792" y2="-210.1592" gradientTransform="matrix(-0.7381 0.2837 0.2538 0.6602 753.8295 -13.8931)">
			<stop  offset="0.0054" style="stop-color:#FFFFFF"/>
			<stop  offset="0.9839" style="stop-color:#A6CE39"/>
		</linearGradient>
		<path fill="url(#SVGID_24_)" d="M193.57,42.202c0.069,0.18,0.368,0.231,0.668,0.116c0.3-0.116,0.487-0.354,0.418-0.533
			c-0.069-0.179-0.368-0.231-0.668-0.115C193.688,41.785,193.501,42.024,193.57,42.202z"/>
		
			<linearGradient id="SVGID_25_" gradientUnits="userSpaceOnUse" x1="695.2002" y1="-206.1846" x2="696.0469" y2="-206.1846" gradientTransform="matrix(-0.7427 0.2714 0.2428 0.6643 759.6776 -9.4863)">
			<stop  offset="0.0054" style="stop-color:#FFFFFF"/>
			<stop  offset="0.9839" style="stop-color:#A6CE39"/>
		</linearGradient>
		<path fill="url(#SVGID_25_)" d="M192.662,42.452c0.038,0.104,0.209,0.136,0.383,0.074c0.174-0.064,0.284-0.2,0.246-0.303
			c-0.038-0.104-0.209-0.137-0.383-0.073C192.734,42.213,192.624,42.348,192.662,42.452z"/>
	</g>
</g>
<g>
	<g>
		
			<linearGradient id="SVGID_26_" gradientUnits="userSpaceOnUse" x1="186.1606" y1="103.6958" x2="186.1606" y2="85.7861" gradientTransform="matrix(0.9416 0.3366 -0.3366 0.9416 22.0062 -85.8245)">
			<stop  offset="0" style="stop-color:#A6CE39"/>
			<stop  offset="0.9839" style="stop-color:#78A842"/>
		</linearGradient>
		<path fill="url(#SVGID_26_)" d="M158.71,57.785c0,0,5.876-2.073,9.614,17.323c0,0,3.009,4.331,3.785,1.502
			c2.833-10.328-11.636-21.835-11.636-21.835S157.175,55.829,158.71,57.785z"/>
	</g>
	
		<linearGradient id="SVGID_27_" gradientUnits="userSpaceOnUse" x1="176.9502" y1="32.3145" x2="165.4629" y2="47.1994" gradientTransform="matrix(0.9607 0.2776 -0.2776 0.9607 -9.473 -54.6925)">
		<stop  offset="0" style="stop-color:#A6CE39"/>
		<stop  offset="1" style="stop-color:#78A842"/>
	</linearGradient>
	<path fill="url(#SVGID_27_)" d="M160.827,57.255c8.636-17.729-6.356-31.451-26.728-33.348c-21.478-2.001-40.685,5.585-40.685,5.585
		S141.754,31.761,160.827,57.255z"/>
	
		<linearGradient id="SVGID_28_" gradientUnits="userSpaceOnUse" x1="165.4478" y1="47.8975" x2="152.8279" y2="65.3711" gradientTransform="matrix(0.9607 0.2776 -0.2776 0.9607 -9.473 -54.6925)">
		<stop  offset="0" style="stop-color:#A6CE39"/>
		<stop  offset="1" style="stop-color:#78A842"/>
	</linearGradient>
	<path fill="url(#SVGID_28_)" d="M93.414,29.493c0,0,20.317,10.518,30.878,28.357c12.338,20.844,32.778,6.663,36.18,0.114
		c0.124-0.237,0.24-0.472,0.354-0.708C141.754,31.761,93.414,29.493,93.414,29.493z"/>
	
		<radialGradient id="SVGID_29_" cx="169.5405" cy="41.418" r="13.2569" gradientTransform="matrix(0.9607 0.2776 -0.2776 0.9607 -9.473 -54.6925)" gradientUnits="userSpaceOnUse">
		<stop  offset="0" style="stop-color:#FFFFFF"/>
		<stop  offset="1" style="stop-color:#A6CE39"/>
	</radialGradient>
	<path fill="url(#SVGID_29_)" d="M124.52,26.187c0,0,23.927,2.871,33.982,14.702C151.704,24.779,124.52,26.187,124.52,26.187z"/>
	<g>
		
			<linearGradient id="SVGID_30_" gradientUnits="userSpaceOnUse" x1="106.5537" y1="123.5557" x2="117.5195" y2="123.5557" gradientTransform="matrix(0.8863 0.4631 -0.4631 0.8863 80.6994 -119.372)">
			<stop  offset="0" style="stop-color:#A6CE39"/>
			<stop  offset="0.3925" style="stop-color:#94BF3D"/>
			<stop  offset="0.9839" style="stop-color:#78A842"/>
		</linearGradient>
		<path fill="url(#SVGID_30_)" d="M127.638,44.559c-0.796,1.522-3.616,1.62-6.3,0.217c-2.684-1.403-4.214-3.773-3.418-5.296
			c0.795-1.522,3.616-1.62,6.299-0.217C126.902,40.665,128.434,43.036,127.638,44.559z"/>
		
			<radialGradient id="SVGID_31_" cx="143.1133" cy="134.7793" r="3.3737" gradientTransform="matrix(1.0013 0.5232 -0.4862 0.9304 46.0623 -157.3832)" gradientUnits="userSpaceOnUse">
			<stop  offset="0" style="stop-color:#FFFFFF"/>
			<stop  offset="1" style="stop-color:#A6CE39"/>
		</radialGradient>
		<path fill="url(#SVGID_31_)" d="M126.3,43.651c-0.632,1.21-3.005,1.218-5.299,0.019c-2.295-1.199-3.644-3.152-3.011-4.361
			c0.632-1.21,3.004-1.218,5.299-0.02C125.583,40.489,126.932,42.441,126.3,43.651z"/>
		
			<linearGradient id="SVGID_32_" gradientUnits="userSpaceOnUse" x1="156.8989" y1="-142.8462" x2="160.0601" y2="-142.8462" gradientTransform="matrix(0.7853 0.0932 -0.0834 0.7024 -15.8445 125.4014)">
			<stop  offset="0.0054" style="stop-color:#FFFFFF"/>
			<stop  offset="0.9839" style="stop-color:#A6CE39"/>
		</linearGradient>
		<path fill="url(#SVGID_32_)" d="M121.764,39.982c-0.049,0.411-0.644,0.677-1.329,0.596c-0.686-0.082-1.202-0.48-1.154-0.889
			c0.049-0.41,0.644-0.677,1.329-0.595C121.297,39.175,121.813,39.574,121.764,39.982z"/>
		
			<linearGradient id="SVGID_33_" gradientUnits="userSpaceOnUse" x1="167.8447" y1="-149.769" x2="169.6631" y2="-149.769" gradientTransform="matrix(0.7867 0.0802 -0.0717 0.7037 -20.4246 131.8079)">
			<stop  offset="0.0054" style="stop-color:#FFFFFF"/>
			<stop  offset="0.9839" style="stop-color:#A6CE39"/>
		</linearGradient>
		<path fill="url(#SVGID_33_)" d="M123.788,40.023c-0.024,0.236-0.364,0.395-0.759,0.354c-0.395-0.041-0.695-0.265-0.671-0.5
			c0.024-0.236,0.364-0.395,0.759-0.354C123.511,39.563,123.812,39.787,123.788,40.023z"/>
	</g>
	<g>
		
			<linearGradient id="SVGID_34_" gradientUnits="userSpaceOnUse" x1="121.1006" y1="125.145" x2="128.2949" y2="125.145" gradientTransform="matrix(0.8863 0.4631 -0.4631 0.8863 80.6994 -119.372)">
			<stop  offset="0" style="stop-color:#A6CE39"/>
			<stop  offset="0.3925" style="stop-color:#94BF3D"/>
			<stop  offset="0.9839" style="stop-color:#78A842"/>
		</linearGradient>
		<path fill="url(#SVGID_34_)" d="M136.453,50.958c-0.522,0.998-2.372,1.062-4.132,0.142c-1.761-0.919-2.765-2.475-2.244-3.474
			c0.522-0.999,2.373-1.062,4.133-0.142C135.97,48.403,136.976,49.958,136.453,50.958z"/>
		
			<radialGradient id="SVGID_35_" cx="153.9136" cy="136.1987" r="2.2128" gradientTransform="matrix(1.0013 0.5232 -0.4862 0.9304 46.0623 -157.3832)" gradientUnits="userSpaceOnUse">
			<stop  offset="0" style="stop-color:#FFFFFF"/>
			<stop  offset="1" style="stop-color:#A6CE39"/>
		</radialGradient>
		<path fill="url(#SVGID_35_)" d="M135.575,50.362c-0.415,0.793-1.971,0.798-3.477,0.012c-1.505-0.787-2.39-2.067-1.975-2.861
			c0.415-0.793,1.971-0.799,3.476-0.012C135.105,48.288,135.99,49.568,135.575,50.362z"/>
		
			<linearGradient id="SVGID_36_" gradientUnits="userSpaceOnUse" x1="172.7808" y1="-133.4595" x2="174.855" y2="-133.4595" gradientTransform="matrix(0.7853 0.0932 -0.0834 0.7024 -15.8445 125.4014)">
			<stop  offset="0.0054" style="stop-color:#FFFFFF"/>
			<stop  offset="0.9839" style="stop-color:#A6CE39"/>
		</linearGradient>
		<path fill="url(#SVGID_36_)" d="M132.6,47.955c-0.032,0.27-0.422,0.444-0.872,0.391c-0.45-0.054-0.788-0.315-0.756-0.583
			c0.031-0.27,0.422-0.444,0.872-0.39C132.292,47.425,132.632,47.687,132.6,47.955z"/>
		
			<linearGradient id="SVGID_37_" gradientUnits="userSpaceOnUse" x1="182.2461" y1="-140.0288" x2="183.4395" y2="-140.0288" gradientTransform="matrix(0.7867 0.0802 -0.0717 0.7037 -20.4246 131.8079)">
			<stop  offset="0.0054" style="stop-color:#FFFFFF"/>
			<stop  offset="0.9839" style="stop-color:#A6CE39"/>
		</linearGradient>
		<path fill="url(#SVGID_37_)" d="M133.927,47.981c-0.016,0.155-0.239,0.259-0.498,0.233c-0.259-0.027-0.457-0.173-0.441-0.328
			c0.016-0.155,0.239-0.26,0.498-0.233C133.746,47.68,133.942,47.827,133.927,47.981z"/>
	</g>
</g>
<g>
	<linearGradient id="SVGID_38_" gradientUnits="userSpaceOnUse" x1="188.7642" y1="56.999" x2="188.7642" y2="185.0054">
		<stop  offset="0" style="stop-color:#A6CE39"/>
		<stop  offset="1" style="stop-color:#78A842"/>
	</linearGradient>
	<path fill="url(#SVGID_38_)" d="M214.938,101.902c-1.5-10.649-11.699-18.75-23.399-18.75c-21.149,0-29.099,18-29.099,36.75
		c0,17.85,7.949,35.849,29.099,35.849c14.399,0,22.499-9.899,24.299-23.999h22.799c-2.4,26.7-20.849,43.799-47.098,43.799
		c-33.148,0-52.648-24.75-52.648-55.648c0-31.799,19.5-56.549,52.648-56.549c23.549,0,43.348,13.799,46.198,38.549H214.938z"/>
	<linearGradient id="SVGID_39_" gradientUnits="userSpaceOnUse" x1="82.7339" y1="44.3091" x2="82.7339" y2="228.4793">
		<stop  offset="0" style="stop-color:#A6CE39"/>
		<stop  offset="1" style="stop-color:#78A842"/>
	</linearGradient>
	<path fill="url(#SVGID_39_)" d="M88.088,149.583H41.483v-20.834l47.864-65.396h19.995v67.48h14.643v18.751h-14.643v25.966H88.088
		V149.583z M88.088,91.884h-0.473l-28.498,38.949h28.971V91.884z"/>
</g>
<g>
	
		<linearGradient id="SVGID_40_" gradientUnits="userSpaceOnUse" x1="159.687" y1="130.5083" x2="175.2251" y2="130.5083" gradientTransform="matrix(0.98 0.1989 -0.1989 0.98 68.2375 -87.0188)">
		<stop  offset="0" style="stop-color:#A6CE39"/>
		<stop  offset="0.3925" style="stop-color:#94BF3D"/>
		<stop  offset="0.9839" style="stop-color:#78A842"/>
	</linearGradient>
	<path fill="url(#SVGID_40_)" d="M214.001,75.731c-0.484,2.385-4.285,3.628-8.491,2.774c-4.205-0.854-7.221-3.479-6.737-5.865
		c0.484-2.386,4.286-3.628,8.491-2.774C211.468,70.719,214.485,73.345,214.001,75.731z"/>
	
		<radialGradient id="SVGID_41_" cx="192.0479" cy="141.5996" r="4.781" gradientTransform="matrix(1.1072 0.2247 -0.2088 1.0288 25.0955 -113.8694)" gradientUnits="userSpaceOnUse">
		<stop  offset="0" style="stop-color:#FFFFFF"/>
		<stop  offset="1" style="stop-color:#A6CE39"/>
	</radialGradient>
	<path fill="url(#SVGID_41_)" d="M211.822,75.022c-0.384,1.896-3.612,2.841-7.207,2.111c-3.596-0.729-6.199-2.858-5.814-4.753
		c0.385-1.896,3.612-2.841,7.207-2.111C209.604,70.999,212.207,73.126,211.822,75.022z"/>
	
		<linearGradient id="SVGID_42_" gradientUnits="userSpaceOnUse" x1="216.4668" y1="-107.1016" x2="220.9473" y2="-107.1016" gradientTransform="matrix(0.7803 -0.1284 0.1149 0.6979 44.1048 174.928)">
		<stop  offset="0.0054" style="stop-color:#FFFFFF"/>
		<stop  offset="0.9839" style="stop-color:#A6CE39"/>
	</linearGradient>
	<path fill="url(#SVGID_42_)" d="M204.205,71.812c0.095,0.577-0.61,1.174-1.575,1.333c-0.966,0.159-1.825-0.182-1.92-0.757
		c-0.095-0.577,0.61-1.175,1.575-1.333C203.25,70.896,204.11,71.236,204.205,71.812z"/>
	
		<linearGradient id="SVGID_43_" gradientUnits="userSpaceOnUse" x1="229.8115" y1="-112.4653" x2="232.3882" y2="-112.4653" gradientTransform="matrix(0.778 -0.1413 0.1264 0.6959 40.3934 182.1723)">
		<stop  offset="0.0054" style="stop-color:#FFFFFF"/>
		<stop  offset="0.9839" style="stop-color:#A6CE39"/>
	</linearGradient>
	<path fill="url(#SVGID_43_)" d="M206.976,71.071c0.061,0.331-0.34,0.681-0.894,0.781c-0.553,0.101-1.051-0.087-1.111-0.417
		c-0.06-0.331,0.34-0.681,0.894-0.781C206.418,70.553,206.915,70.74,206.976,71.071z"/>
</g>
<g>
	
		<linearGradient id="SVGID_44_" gradientUnits="userSpaceOnUse" x1="150.1309" y1="188.0674" x2="160.2656" y2="188.0674" gradientTransform="matrix(0.8598 0.5107 -0.5107 0.8598 184.4906 -157.5347)">
		<stop  offset="0" style="stop-color:#A6CE39"/>
		<stop  offset="0.3925" style="stop-color:#94BF3D"/>
		<stop  offset="0.9839" style="stop-color:#78A842"/>
	</linearGradient>
	<path fill="url(#SVGID_44_)" d="M226.241,86.014c-0.811,1.364-3.418,1.313-5.825-0.117c-2.406-1.429-3.699-3.694-2.888-5.059
		c0.811-1.365,3.419-1.313,5.825,0.116S227.052,84.649,226.241,86.014z"/>
	
		<radialGradient id="SVGID_45_" cx="180.9688" cy="195.9326" r="3.1177" gradientTransform="matrix(0.9713 0.577 -0.5361 0.9026 152.0765 -196.9805)" gradientUnits="userSpaceOnUse">
		<stop  offset="0" style="stop-color:#FFFFFF"/>
		<stop  offset="1" style="stop-color:#A6CE39"/>
	</radialGradient>
	<path fill="url(#SVGID_45_)" d="M225.052,85.109c-0.645,1.085-2.834,0.974-4.892-0.248c-2.058-1.223-3.203-3.093-2.559-4.177
		c0.645-1.084,2.834-0.973,4.892,0.249S225.696,84.025,225.052,85.109z"/>
	
		<linearGradient id="SVGID_46_" gradientUnits="userSpaceOnUse" x1="179.7109" y1="-35.7876" x2="182.6328" y2="-35.7876" gradientTransform="matrix(0.779 0.1359 -0.1215 0.6968 74.4315 81.6132)">
		<stop  offset="0.0054" style="stop-color:#FFFFFF"/>
		<stop  offset="0.9839" style="stop-color:#A6CE39"/>
	</linearGradient>
	<path fill="url(#SVGID_46_)" d="M221.051,81.496c-0.065,0.376-0.628,0.592-1.256,0.482c-0.629-0.109-1.085-0.504-1.02-0.879
		c0.065-0.376,0.628-0.592,1.256-0.482C220.66,80.727,221.116,81.121,221.051,81.496z"/>
	
		<linearGradient id="SVGID_47_" gradientUnits="userSpaceOnUse" x1="188.1567" y1="-40.6987" x2="189.8374" y2="-40.6987" gradientTransform="matrix(0.7812 0.1229 -0.1099 0.6987 70.1422 86.7396)">
		<stop  offset="0.0054" style="stop-color:#FFFFFF"/>
		<stop  offset="0.9839" style="stop-color:#A6CE39"/>
	</linearGradient>
	<path fill="url(#SVGID_47_)" d="M222.916,81.634c-0.034,0.218-0.355,0.347-0.718,0.289c-0.362-0.057-0.629-0.279-0.595-0.495
		c0.034-0.217,0.356-0.347,0.718-0.289C222.684,81.196,222.95,81.417,222.916,81.634z"/>
</g>
<g>
	
		<linearGradient id="SVGID_48_" gradientUnits="userSpaceOnUse" x1="310.2471" y1="507.9922" x2="324.8262" y2="507.9922" gradientTransform="matrix(0.5339 0.8455 -0.8455 0.5339 359.0487 -462.6696)">
		<stop  offset="0" style="stop-color:#A6CE39"/>
		<stop  offset="0.3925" style="stop-color:#94BF3D"/>
		<stop  offset="0.9839" style="stop-color:#78A842"/>
	</linearGradient>
	<path fill="url(#SVGID_48_)" d="M102.883,83.239c-2.312,1.338-5.895-0.357-7.998-3.79c-2.102-3.431-1.931-7.3,0.384-8.638
		c2.313-1.339,5.894,0.359,7.996,3.789C105.368,78.034,105.196,81.901,102.883,83.239z"/>
	
		<radialGradient id="SVGID_49_" cx="317.4897" cy="448.6602" r="4.7802" gradientTransform="matrix(0.5537 0.9037 -0.9978 0.5771 371.4984 -467.0722)" gradientUnits="userSpaceOnUse">
		<stop  offset="0" style="stop-color:#FFFFFF"/>
		<stop  offset="1" style="stop-color:#A6CE39"/>
	</radialGradient>
	<path fill="url(#SVGID_49_)" d="M102.017,81.276c-1.839,1.063-4.787-0.453-6.584-3.39c-1.8-2.933-1.768-6.175,0.07-7.238
		c1.839-1.063,4.787,0.454,6.585,3.389S103.854,80.211,102.017,81.276z"/>
	
		<linearGradient id="SVGID_50_" gradientUnits="userSpaceOnUse" x1="225.5957" y1="467.4043" x2="229.9375" y2="467.4043" gradientTransform="matrix(0.6323 0.4749 -0.4248 0.5655 152.7208 -299.5657)">
		<stop  offset="0.0054" style="stop-color:#FFFFFF"/>
		<stop  offset="0.9839" style="stop-color:#A6CE39"/>
	</linearGradient>
	<path fill="url(#SVGID_50_)" d="M99.593,73.897c-0.416,0.467-1.385,0.408-2.164-0.133c-0.78-0.539-1.069-1.357-0.655-1.822
		c0.419-0.468,1.39-0.408,2.167,0.131C99.72,72.614,100.011,73.43,99.593,73.897z"/>
	
		<linearGradient id="SVGID_51_" gradientUnits="userSpaceOnUse" x1="228.7534" y1="460.9531" x2="231.2583" y2="460.9531" gradientTransform="matrix(0.6401 0.4644 -0.4154 0.5725 145.4979 -296.011)">
		<stop  offset="0.0054" style="stop-color:#FFFFFF"/>
		<stop  offset="0.9839" style="stop-color:#A6CE39"/>
	</linearGradient>
	<path fill="url(#SVGID_51_)" d="M102.067,75.249c-0.236,0.271-0.796,0.246-1.25-0.059c-0.455-0.301-0.632-0.768-0.396-1.039
		c0.237-0.272,0.796-0.246,1.251,0.059C102.127,74.511,102.303,74.977,102.067,75.249z"/>
</g>
<g>
	
		<linearGradient id="SVGID_52_" gradientUnits="userSpaceOnUse" x1="905.0117" y1="427.9844" x2="910.1426" y2="427.9844" gradientTransform="matrix(-0.538 0.843 -0.843 -0.538 947.2509 -441.4797)">
		<stop  offset="0" style="stop-color:#A6CE39"/>
		<stop  offset="0.3925" style="stop-color:#94BF3D"/>
		<stop  offset="0.9839" style="stop-color:#78A842"/>
	</linearGradient>
	<path fill="url(#SVGID_52_)" d="M97.483,95.902c-1.145-1.02-1.757-2.988-1.368-4.396c0.386-1.408,1.627-1.724,2.771-0.703
		c1.144,1.021,1.756,2.987,1.368,4.396C99.868,96.607,98.626,96.922,97.483,95.902z"/>
	
		<radialGradient id="SVGID_53_" cx="1369.375" cy="597.0146" r="3.1186" gradientTransform="matrix(-0.1565 0.5684 -0.7562 -0.6743 763.5903 -281.9827)" gradientUnits="userSpaceOnUse">
		<stop  offset="0" style="stop-color:#FFFFFF"/>
		<stop  offset="1" style="stop-color:#A6CE39"/>
	</radialGradient>
	<path fill="url(#SVGID_53_)" d="M97.811,95.266c-0.908-0.811-1.377-2.443-1.046-3.648c0.331-1.203,1.338-1.522,2.246-0.713
		c0.908,0.811,1.376,2.443,1.045,3.647C99.724,95.756,98.719,96.074,97.811,95.266z"/>
	
		<linearGradient id="SVGID_54_" gradientUnits="userSpaceOnUse" x1="963.2959" y1="662.5674" x2="965.2744" y2="662.5674" gradientTransform="matrix(-0.1607 0.7743 -0.6925 -0.1438 712.9506 -558.8866)">
		<stop  offset="0.0054" style="stop-color:#FFFFFF"/>
		<stop  offset="0.9839" style="stop-color:#A6CE39"/>
	</linearGradient>
	<path fill="url(#SVGID_54_)" d="M99.308,93.289c-0.275-0.161-0.563-0.652-0.645-1.1c-0.082-0.445,0.078-0.675,0.353-0.515
		c0.276,0.161,0.564,0.653,0.645,1.097C99.743,93.218,99.583,93.449,99.308,93.289z"/>
	
		<linearGradient id="SVGID_55_" gradientUnits="userSpaceOnUse" x1="961.3457" y1="669.1484" x2="962.5" y2="669.1484" gradientTransform="matrix(-0.1479 0.7768 -0.6948 -0.1323 706.7791 -564.4958)">
		<stop  offset="0.0054" style="stop-color:#FFFFFF"/>
		<stop  offset="0.9839" style="stop-color:#A6CE39"/>
	</linearGradient>
	<path fill="url(#SVGID_55_)" d="M99.677,94.666c-0.158-0.09-0.327-0.373-0.378-0.631c-0.051-0.26,0.035-0.396,0.193-0.307
		c0.159,0.09,0.328,0.373,0.378,0.632C99.922,94.62,99.834,94.756,99.677,94.666z"/>
</g>
</svg>
