<?xml version="1.0" encoding="utf-8"?>
<!-- Generator: Adobe Illustrator 16.0.3, SVG Export Plug-In . SVG Version: 6.00 Build 0)  -->
<!DOCTYPE svg PUBLIC "-//W3C//DTD SVG 1.1//EN" "http://www.w3.org/Graphics/SVG/1.1/DTD/svg11.dtd">
<svg version="1.1" id="Layer_1" xmlns="http://www.w3.org/2000/svg" xmlns:xlink="http://www.w3.org/1999/xlink" x="0px" y="0px"
	 width="927px" height="240px" viewBox="-320.785 17 927 240" enable-background="new -320.785 17 927 240" xml:space="preserve">
<g>
	<g>
		
			<linearGradient id="SVGID_1_" gradientUnits="userSpaceOnUse" x1="455.1033" y1="158.1221" x2="455.1033" y2="165.6914" gradientTransform="matrix(-0.9487 0.3162 -0.3162 -0.9487 594.6997 106.2383)">
			<stop  offset="0" style="stop-color:#A6CE39"/>
			<stop  offset="0.9839" style="stop-color:#78A842"/>
		</linearGradient>
		<path fill="url(#SVGID_1_)" d="M114.649,93.099c0,0-2.464-0.93-4.221,7.232c0,0-1.312,1.803-1.613,0.601
			c-1.104-4.391,5.117-9.121,5.117-9.121S115.316,92.286,114.649,93.099z"/>
	</g>
	
		<linearGradient id="SVGID_2_" gradientUnits="userSpaceOnUse" x1="443.5525" y1="177.876" x2="438.6966" y2="171.5839" gradientTransform="matrix(-0.9665 0.2568 -0.2568 -0.9665 592.3341 137.5175)">
		<stop  offset="0" style="stop-color:#A6CE39"/>
		<stop  offset="1" style="stop-color:#78A842"/>
	</linearGradient>
	<path fill="url(#SVGID_2_)" d="M113.76,92.856c-3.486-7.573,2.975-13.234,11.603-13.851c9.094-0.648,17.142,2.732,17.142,2.732
		S122.053,82.256,113.76,92.856z"/>
	
		<linearGradient id="SVGID_3_" gradientUnits="userSpaceOnUse" x1="438.6882" y1="171.2891" x2="433.3536" y2="163.9026" gradientTransform="matrix(-0.9665 0.2568 -0.2568 -0.9665 592.3341 137.5175)">
		<stop  offset="0" style="stop-color:#A6CE39"/>
		<stop  offset="1" style="stop-color:#78A842"/>
	</linearGradient>
	<path fill="url(#SVGID_3_)" d="M142.503,81.738c0,0-8.683,4.259-13.309,11.703c-5.405,8.696-13.912,2.516-15.292-0.282
		c-0.05-0.101-0.097-0.202-0.144-0.302C122.053,82.256,142.503,81.738,142.503,81.738z"/>
	
		<radialGradient id="SVGID_4_" cx="440.4314" cy="174.0176" r="5.6039" gradientTransform="matrix(-0.9665 0.2568 -0.2568 -0.9665 592.3341 137.5175)" gradientUnits="userSpaceOnUse">
		<stop  offset="0" style="stop-color:#FFFFFF"/>
		<stop  offset="1" style="stop-color:#A6CE39"/>
	</radialGradient>
	<path fill="url(#SVGID_4_)" d="M129.389,80.057c0,0-10.14,0.997-14.497,5.904C117.913,79.214,129.389,80.057,129.389,80.057z"/>
	<g>
		
			<linearGradient id="SVGID_5_" gradientUnits="userSpaceOnUse" x1="440.1521" y1="192.2363" x2="444.7878" y2="192.2363" gradientTransform="matrix(-0.8961 0.4438 -0.4438 -0.8961 611.7869 62.6615)">
			<stop  offset="0" style="stop-color:#A6CE39"/>
			<stop  offset="0.3925" style="stop-color:#94BF3D"/>
			<stop  offset="0.9839" style="stop-color:#78A842"/>
		</linearGradient>
		<path fill="url(#SVGID_5_)" d="M127.902,87.793c0.321,0.65,1.513,0.717,2.66,0.149c1.146-0.568,1.814-1.556,1.494-2.206
			c-0.322-0.651-1.515-0.719-2.66-0.15C128.249,86.153,127.581,87.142,127.902,87.793z"/>
		
			<radialGradient id="SVGID_6_" cx="417.2078" cy="191.4434" r="1.4259" gradientTransform="matrix(-1.0123 0.5015 -0.466 -0.9407 641.0975 58.0089)" gradientUnits="userSpaceOnUse">
			<stop  offset="0" style="stop-color:#FFFFFF"/>
			<stop  offset="1" style="stop-color:#A6CE39"/>
		</radialGradient>
		<path fill="url(#SVGID_6_)" d="M128.477,87.421c0.255,0.518,1.258,0.542,2.238,0.057c0.981-0.486,1.568-1.299,1.313-1.814
			c-0.257-0.518-1.26-0.543-2.24-0.059C128.808,86.091,128.22,86.905,128.477,87.421z"/>
		
			<linearGradient id="SVGID_7_" gradientUnits="userSpaceOnUse" x1="486.0632" y1="148.1553" x2="487.4011" y2="148.1553" gradientTransform="matrix(-0.7871 0.0762 -0.0682 -0.704 524.1945 153.0718)">
			<stop  offset="0.0054" style="stop-color:#FFFFFF"/>
			<stop  offset="0.9839" style="stop-color:#A6CE39"/>
		</linearGradient>
		<path fill="url(#SVGID_7_)" d="M130.426,85.913c0.018,0.173,0.268,0.292,0.557,0.265c0.291-0.029,0.511-0.192,0.496-0.366
			c-0.018-0.174-0.268-0.292-0.558-0.263C130.631,85.576,130.41,85.74,130.426,85.913z"/>
		
			<linearGradient id="SVGID_8_" gradientUnits="userSpaceOnUse" x1="487.3083" y1="146.0039" x2="488.0759" y2="146.0039" gradientTransform="matrix(-0.7883 0.0632 -0.0565 -0.7051 522.5439 158.014)">
			<stop  offset="0.0054" style="stop-color:#FFFFFF"/>
			<stop  offset="0.9839" style="stop-color:#A6CE39"/>
		</linearGradient>
		<path fill="url(#SVGID_8_)" d="M129.57,85.912c0.008,0.1,0.151,0.169,0.317,0.156c0.168-0.014,0.296-0.105,0.288-0.205
			c-0.009-0.1-0.149-0.17-0.316-0.157C129.692,85.719,129.563,85.811,129.57,85.912z"/>
	</g>
	<g>
		
			<linearGradient id="SVGID_9_" gradientUnits="userSpaceOnUse" x1="446.3015" y1="191.5625" x2="449.3435" y2="191.5625" gradientTransform="matrix(-0.8961 0.4438 -0.4438 -0.8961 611.7869 62.6615)">
			<stop  offset="0" style="stop-color:#A6CE39"/>
			<stop  offset="0.3925" style="stop-color:#94BF3D"/>
			<stop  offset="0.9839" style="stop-color:#78A842"/>
		</linearGradient>
		<path fill="url(#SVGID_9_)" d="M124.118,90.417c0.211,0.427,0.993,0.47,1.746,0.099c0.752-0.374,1.191-1.021,0.98-1.448
			c-0.211-0.428-0.993-0.471-1.745-0.099C124.347,89.341,123.907,89.99,124.118,90.417z"/>
		
			<radialGradient id="SVGID_10_" cx="421.7751" cy="190.8438" r="0.9345" gradientTransform="matrix(-1.0123 0.5015 -0.466 -0.9407 641.0975 58.0089)" gradientUnits="userSpaceOnUse">
			<stop  offset="0" style="stop-color:#FFFFFF"/>
			<stop  offset="1" style="stop-color:#A6CE39"/>
		</radialGradient>
		<path fill="url(#SVGID_10_)" d="M124.494,90.173c0.169,0.339,0.826,0.354,1.47,0.036c0.645-0.317,1.028-0.851,0.86-1.191
			c-0.168-0.338-0.825-0.355-1.469-0.037C124.712,89.301,124.326,89.833,124.494,90.173z"/>
		
			<linearGradient id="SVGID_11_" gradientUnits="userSpaceOnUse" x1="492.7771" y1="144.1885" x2="493.6531" y2="144.1885" gradientTransform="matrix(-0.7871 0.0762 -0.0682 -0.704 524.1945 153.0718)">
			<stop  offset="0.0054" style="stop-color:#FFFFFF"/>
			<stop  offset="0.9839" style="stop-color:#A6CE39"/>
		</linearGradient>
		<path fill="url(#SVGID_11_)" d="M125.774,89.183c0.01,0.115,0.175,0.192,0.366,0.173c0.189-0.019,0.334-0.125,0.323-0.239
			c-0.011-0.114-0.174-0.192-0.365-0.173C125.909,88.962,125.764,89.069,125.774,89.183z"/>
		
			<linearGradient id="SVGID_12_" gradientUnits="userSpaceOnUse" x1="493.3933" y1="141.8848" x2="493.9001" y2="141.8848" gradientTransform="matrix(-0.7883 0.0632 -0.0565 -0.7051 522.5439 158.014)">
			<stop  offset="0.0054" style="stop-color:#FFFFFF"/>
			<stop  offset="0.9839" style="stop-color:#A6CE39"/>
		</linearGradient>
		<path fill="url(#SVGID_12_)" d="M125.212,89.182c0.006,0.066,0.1,0.112,0.208,0.104c0.11-0.009,0.195-0.069,0.191-0.135
			c-0.006-0.064-0.099-0.11-0.209-0.102C125.292,89.057,125.208,89.116,125.212,89.182z"/>
	</g>
</g>
<g>
	
		<linearGradient id="SVGID_13_" gradientUnits="userSpaceOnUse" x1="-193.9583" y1="124.8926" x2="-162.2156" y2="124.8926" gradientTransform="matrix(1 0 0 -1 245.6909 200.0947)">
		<stop  offset="0" style="stop-color:#A6CE39"/>
		<stop  offset="0.9839" style="stop-color:#78A842"/>
	</linearGradient>
	<path fill="url(#SVGID_13_)" d="M64.683,74.379c0,0,0.275-0.105,0.843-0.192c0.555-0.084,1.488-0.057,2.464,0.585
		c0.957,0.649,1.789,1.887,2.199,3.456c0.408,1.564,0.475,3.485-0.203,5.496c-0.344,0.998-0.895,2.02-1.729,2.91
		c-0.836,0.886-1.988,1.586-3.27,1.943c-0.321,0.105-0.623,0.13-0.942,0.197c-0.315,0.05-0.631,0.132-0.96,0.15
		c-0.662,0.014-1.339,0.088-2.029-0.035c-0.699-0.045-1.382-0.257-2.078-0.462c-0.663-0.281-1.356-0.559-1.962-0.99
		c-1.237-0.811-2.348-1.895-3.153-3.18c-0.821-1.276-1.423-2.71-1.783-4.229c-0.366-1.52-0.437-3.132-0.237-4.754l0.078-0.61
		c0.034-0.196,0.08-0.379,0.121-0.569c0.085-0.378,0.17-0.756,0.256-1.137c0.113-0.374,0.228-0.749,0.343-1.125l0.177-0.563
		l0.22-0.555c1.139-2.948,3.007-5.701,5.693-7.475c1.312-0.912,2.874-1.459,4.408-1.681c1.551-0.266,3.069-0.023,4.453,0.307
		c0.338,0.113,0.671,0.227,1.002,0.339l0.494,0.17c0.159,0.063,0.305,0.145,0.456,0.216c0.597,0.305,1.193,0.553,1.751,0.918
		c0.28,0.171,0.559,0.34,0.834,0.509c0.274,0.171,0.518,0.397,0.771,0.593c0.247,0.206,0.508,0.394,0.73,0.613
		c0.22,0.225,0.436,0.447,0.649,0.67c1.679,1.806,2.683,3.791,3.479,5.559c0.789,1.782,1.388,3.395,1.983,4.773
		c0.285,0.698,0.592,1.317,0.863,1.902c0.304,0.558,0.561,1.091,0.846,1.53c0.54,0.906,1.077,1.528,1.423,1.974
		c0.395,0.397,0.603,0.607,0.603,0.607s-0.245-0.173-0.707-0.498c-0.418-0.379-1.07-0.92-1.767-1.759
		c-0.363-0.406-0.705-0.904-1.104-1.436c-0.36-0.551-0.771-1.147-1.153-1.811c-0.795-1.314-1.605-2.856-2.559-4.471
		c-0.955-1.606-2.08-3.297-3.607-4.65c-0.19-0.165-0.385-0.333-0.58-0.501c-0.198-0.163-0.423-0.29-0.634-0.438
		c-0.219-0.138-0.417-0.304-0.655-0.423c-0.237-0.118-0.478-0.238-0.72-0.358c-0.464-0.261-1.011-0.435-1.524-0.657
		c-0.131-0.05-0.261-0.113-0.392-0.154l-0.396-0.102c-0.264-0.071-0.529-0.143-0.797-0.214c-2.141-0.433-4.39-0.089-6.249,1.277
		c-1.875,1.326-3.353,3.493-4.294,5.953l-0.186,0.458l-0.148,0.473l-0.296,0.942c-0.075,0.32-0.149,0.64-0.225,0.957
		c-0.036,0.159-0.082,0.32-0.11,0.475l-0.062,0.446c-0.167,1.184-0.159,2.408,0.082,3.57c0.463,2.316,1.632,4.437,3.316,5.656
		c0.399,0.341,0.867,0.547,1.312,0.79c0.475,0.167,0.938,0.371,1.437,0.435c0.483,0.141,0.993,0.109,1.489,0.153
		c0.249,0.012,0.501-0.039,0.75-0.053c0.243-0.03,0.514-0.024,0.731-0.079c0.899-0.165,1.711-0.543,2.375-1.104
		c0.656-0.566,1.173-1.287,1.542-2.055c0.738-1.546,0.917-3.225,0.746-4.621c-0.169-1.406-0.718-2.558-1.442-3.237
		c-0.736-0.672-1.571-0.858-2.116-0.868C64.98,74.327,64.683,74.379,64.683,74.379z"/>
</g>
<g>
	<g>
		
			<linearGradient id="SVGID_14_" gradientUnits="userSpaceOnUse" x1="452.2732" y1="212.3643" x2="452.2732" y2="225.0664" gradientTransform="matrix(-0.8298 0.5581 -0.5581 -0.8298 671.5359 -10.5511)">
			<stop  offset="0" style="stop-color:#A6CE39"/>
			<stop  offset="0.9839" style="stop-color:#78A842"/>
		</linearGradient>
		<path fill="url(#SVGID_14_)" d="M177.335,53.521c0,0-4.401-0.399-3.584,13.588c0,0-1.312,3.503-2.34,1.694
			c-3.751-6.604,4.188-17.044,4.188-17.044S178.049,51.908,177.335,53.521z"/>
	</g>
	
		<linearGradient id="SVGID_15_" gradientUnits="userSpaceOnUse" x1="436.8992" y1="244.9141" x2="428.7508" y2="234.3556" gradientTransform="matrix(-0.8628 0.5056 -0.5056 -0.8628 677.3978 20.4739)">
		<stop  offset="0" style="stop-color:#A6CE39"/>
		<stop  offset="1" style="stop-color:#78A842"/>
	</linearGradient>
	<path fill="url(#SVGID_15_)" d="M175.788,53.527c-9.034-10.682-1.123-22.734,12.551-27.597c14.417-5.127,28.947-3.266,28.947-3.266
		S184.447,32.667,175.788,53.527z"/>
	
		<linearGradient id="SVGID_16_" gradientUnits="userSpaceOnUse" x1="428.738" y1="233.8623" x2="419.7866" y2="221.4679" gradientTransform="matrix(-0.8628 0.5056 -0.5056 -0.8628 677.3978 20.4739)">
		<stop  offset="0" style="stop-color:#A6CE39"/>
		<stop  offset="1" style="stop-color:#78A842"/>
	</linearGradient>
	<path fill="url(#SVGID_16_)" d="M217.286,22.664c0,0-12.132,10.78-16.276,24.89c-4.842,16.486-21.371,10.306-24.854,6.397
		c-0.126-0.141-0.247-0.282-0.367-0.424C184.447,32.667,217.286,22.664,217.286,22.664z"/>
	
		<radialGradient id="SVGID_17_" cx="431.6423" cy="238.4561" r="9.4038" gradientTransform="matrix(-0.8628 0.5056 -0.5056 -0.8628 677.3978 20.4739)" gradientUnits="userSpaceOnUse">
		<stop  offset="0" style="stop-color:#FFFFFF"/>
		<stop  offset="1" style="stop-color:#A6CE39"/>
	</radialGradient>
	<path fill="url(#SVGID_17_)" d="M195.323,25.825c0,0-15.949,6.153-20.796,16.043C176.387,29.605,195.323,25.825,195.323,25.825z"/>
	<g>
		
			<linearGradient id="SVGID_18_" gradientUnits="userSpaceOnUse" x1="413.6814" y1="249.498" x2="421.4587" y2="249.498" gradientTransform="matrix(-0.745 0.6671 -0.6671 -0.745 676.816 -56.2783)">
			<stop  offset="0" style="stop-color:#A6CE39"/>
			<stop  offset="0.3925" style="stop-color:#94BF3D"/>
			<stop  offset="0.9839" style="stop-color:#78A842"/>
		</linearGradient>
		<path fill="url(#SVGID_18_)" d="M196.388,39c0.813,0.908,2.769,0.482,4.369-0.951c1.601-1.433,2.238-3.331,1.426-4.237
			c-0.813-0.908-2.771-0.483-4.369,0.951C196.213,36.194,195.575,38.093,196.388,39z"/>
		
			<radialGradient id="SVGID_19_" cx="395.1238" cy="245.915" r="2.3933" gradientTransform="matrix(-0.8416 0.7537 -0.7003 -0.7821 703.4636 -68.285)" gradientUnits="userSpaceOnUse">
			<stop  offset="0" style="stop-color:#FFFFFF"/>
			<stop  offset="1" style="stop-color:#A6CE39"/>
		</radialGradient>
		<path fill="url(#SVGID_19_)" d="M197.149,38.143c0.646,0.722,2.279,0.313,3.646-0.913c1.369-1.226,1.954-2.804,1.309-3.523
			c-0.646-0.722-2.278-0.313-3.647,0.911C197.09,35.843,196.504,37.421,197.149,38.143z"/>
		
			<linearGradient id="SVGID_20_" gradientUnits="userSpaceOnUse" x1="482.156" y1="235.7988" x2="484.3982" y2="235.7988" gradientTransform="matrix(-0.7381 0.2837 -0.2538 -0.6602 617.0078 53.0785)">
			<stop  offset="0.0054" style="stop-color:#FFFFFF"/>
			<stop  offset="0.9839" style="stop-color:#A6CE39"/>
		</linearGradient>
		<path fill="url(#SVGID_20_)" d="M199.627,34.828c0.105,0.273,0.562,0.353,1.019,0.178c0.457-0.177,0.742-0.54,0.638-0.813
			s-0.562-0.353-1.018-0.177C199.807,34.191,199.522,34.556,199.627,34.828z"/>
		
			<linearGradient id="SVGID_21_" gradientUnits="userSpaceOnUse" x1="485.6365" y1="232.8174" x2="486.9275" y2="232.8174" gradientTransform="matrix(-0.7427 0.2714 -0.2428 -0.6643 616.4105 57.718)">
			<stop  offset="0.0054" style="stop-color:#FFFFFF"/>
			<stop  offset="0.9839" style="stop-color:#A6CE39"/>
		</linearGradient>
		<path fill="url(#SVGID_21_)" d="M198.243,35.21c0.058,0.158,0.319,0.208,0.583,0.11c0.264-0.097,0.432-0.303,0.375-0.461
			c-0.059-0.158-0.32-0.208-0.584-0.111C198.353,34.845,198.185,35.051,198.243,35.21z"/>
	</g>
	<g>
		
			<linearGradient id="SVGID_22_" gradientUnits="userSpaceOnUse" x1="424.0007" y1="248.373" x2="429.1033" y2="248.373" gradientTransform="matrix(-0.745 0.6671 -0.6671 -0.745 676.816 -56.2783)">
			<stop  offset="0" style="stop-color:#A6CE39"/>
			<stop  offset="0.3925" style="stop-color:#94BF3D"/>
			<stop  offset="0.9839" style="stop-color:#78A842"/>
		</linearGradient>
		<path fill="url(#SVGID_22_)" d="M191.445,44.939c0.533,0.595,1.816,0.316,2.866-0.624s1.468-2.185,0.935-2.781
			c-0.533-0.595-1.815-0.315-2.866,0.624C191.331,43.098,190.912,44.344,191.445,44.939z"/>
		
			<radialGradient id="SVGID_23_" cx="402.7849" cy="244.9063" r="1.5711" gradientTransform="matrix(-0.8416 0.7537 -0.7003 -0.7821 703.4636 -68.285)" gradientUnits="userSpaceOnUse">
			<stop  offset="0" style="stop-color:#FFFFFF"/>
			<stop  offset="1" style="stop-color:#A6CE39"/>
		</radialGradient>
		<path fill="url(#SVGID_23_)" d="M191.945,44.377c0.423,0.473,1.494,0.204,2.392-0.599c0.897-0.804,1.282-1.839,0.858-2.312
			c-0.423-0.473-1.495-0.205-2.392,0.599C191.905,42.868,191.521,43.903,191.945,44.377z"/>
		
			<linearGradient id="SVGID_24_" gradientUnits="userSpaceOnUse" x1="493.4216" y1="229.1406" x2="494.8923" y2="229.1406" gradientTransform="matrix(-0.7381 0.2837 -0.2538 -0.6602 617.0078 53.0785)">
			<stop  offset="0.0054" style="stop-color:#FFFFFF"/>
			<stop  offset="0.9839" style="stop-color:#A6CE39"/>
		</linearGradient>
		<path fill="url(#SVGID_24_)" d="M193.57,42.202c0.069,0.18,0.368,0.231,0.668,0.116c0.3-0.116,0.487-0.354,0.418-0.533
			c-0.069-0.179-0.368-0.231-0.668-0.115C193.688,41.785,193.501,42.024,193.57,42.202z"/>
		
			<linearGradient id="SVGID_25_" gradientUnits="userSpaceOnUse" x1="495.8542" y1="225.9053" x2="496.7009" y2="225.9053" gradientTransform="matrix(-0.7427 0.2714 -0.2428 -0.6643 616.4105 57.718)">
			<stop  offset="0.0054" style="stop-color:#FFFFFF"/>
			<stop  offset="0.9839" style="stop-color:#A6CE39"/>
		</linearGradient>
		<path fill="url(#SVGID_25_)" d="M192.662,42.452c0.038,0.104,0.209,0.136,0.383,0.074c0.175-0.064,0.284-0.2,0.246-0.303
			c-0.038-0.104-0.209-0.137-0.383-0.073C192.734,42.213,192.624,42.348,192.662,42.452z"/>
	</g>
</g>
<g>
	<g>
		
			<linearGradient id="SVGID_26_" gradientUnits="userSpaceOnUse" x1="285.1794" y1="167.2227" x2="285.1794" y2="185.1318" gradientTransform="matrix(0.9416 0.3366 0.3366 -0.9416 -162.4217 135.9439)">
			<stop  offset="0" style="stop-color:#A6CE39"/>
			<stop  offset="0.9839" style="stop-color:#78A842"/>
		</linearGradient>
		<path fill="url(#SVGID_26_)" d="M158.71,57.785c0,0,5.876-2.073,9.614,17.323c0,0,3.009,4.331,3.785,1.502
			c2.833-10.328-11.636-21.835-11.636-21.835S157.175,55.829,158.71,57.785z"/>
	</g>
	
		<linearGradient id="SVGID_27_" gradientUnits="userSpaceOnUse" x1="259.9695" y1="223.3672" x2="248.482" y2="208.482" gradientTransform="matrix(0.9607 0.2776 0.2776 -0.9607 -160.2058 167.8954)">
		<stop  offset="0" style="stop-color:#A6CE39"/>
		<stop  offset="1" style="stop-color:#78A842"/>
	</linearGradient>
	<path fill="url(#SVGID_27_)" d="M160.827,57.255c8.636-17.729-6.355-31.451-26.728-33.348c-21.479-2.001-40.686,5.585-40.686,5.585
		S141.754,31.761,160.827,57.255z"/>
	
		<linearGradient id="SVGID_28_" gradientUnits="userSpaceOnUse" x1="248.4666" y1="207.7832" x2="235.8466" y2="190.3096" gradientTransform="matrix(0.9607 0.2776 0.2776 -0.9607 -160.2058 167.8954)">
		<stop  offset="0" style="stop-color:#A6CE39"/>
		<stop  offset="1" style="stop-color:#78A842"/>
	</linearGradient>
	<path fill="url(#SVGID_28_)" d="M93.414,29.493c0,0,20.317,10.518,30.878,28.357c12.338,20.844,32.778,6.663,36.181,0.114
		c0.124-0.237,0.239-0.472,0.354-0.708C141.754,31.761,93.414,29.493,93.414,29.493z"/>
	
		<radialGradient id="SVGID_29_" cx="252.5603" cy="214.2637" r="13.2564" gradientTransform="matrix(0.9607 0.2776 0.2776 -0.9607 -160.2058 167.8954)" gradientUnits="userSpaceOnUse">
		<stop  offset="0" style="stop-color:#FFFFFF"/>
		<stop  offset="1" style="stop-color:#A6CE39"/>
	</radialGradient>
	<path fill="url(#SVGID_29_)" d="M124.52,26.187c0,0,23.927,2.871,33.981,14.702C151.704,24.779,124.52,26.187,124.52,26.187z"/>
	<g>
		
			<linearGradient id="SVGID_30_" gradientUnits="userSpaceOnUse" x1="237.5876" y1="184.7129" x2="248.5525" y2="184.7129" gradientTransform="matrix(0.8863 0.4631 0.4631 -0.8863 -178.1945 93.1658)">
			<stop  offset="0" style="stop-color:#A6CE39"/>
			<stop  offset="0.3925" style="stop-color:#94BF3D"/>
			<stop  offset="0.9839" style="stop-color:#78A842"/>
		</linearGradient>
		<path fill="url(#SVGID_30_)" d="M127.638,44.559c-0.797,1.522-3.616,1.62-6.301,0.217c-2.684-1.403-4.214-3.773-3.418-5.296
			c0.795-1.522,3.616-1.62,6.3-0.217C126.902,40.665,128.434,43.036,127.638,44.559z"/>
		
			<radialGradient id="SVGID_31_" cx="241.3279" cy="183.582" r="3.373" gradientTransform="matrix(1.0013 0.5232 0.4862 -0.9304 -207.066 87.4335)" gradientUnits="userSpaceOnUse">
			<stop  offset="0" style="stop-color:#FFFFFF"/>
			<stop  offset="1" style="stop-color:#A6CE39"/>
		</radialGradient>
		<path fill="url(#SVGID_31_)" d="M126.3,43.651c-0.632,1.21-3.005,1.218-5.299,0.019c-2.295-1.199-3.644-3.152-3.011-4.361
			c0.632-1.21,3.004-1.218,5.299-0.02C125.583,40.489,126.932,42.441,126.3,43.651z"/>
		
			<linearGradient id="SVGID_32_" gradientUnits="userSpaceOnUse" x1="244.3484" y1="239.1191" x2="247.5105" y2="239.1191" gradientTransform="matrix(0.7853 0.0932 0.0834 -0.7024 -92.5486 184.872)">
			<stop  offset="0.0054" style="stop-color:#FFFFFF"/>
			<stop  offset="0.9839" style="stop-color:#A6CE39"/>
		</linearGradient>
		<path fill="url(#SVGID_32_)" d="M121.764,39.982c-0.05,0.411-0.645,0.677-1.329,0.596c-0.687-0.082-1.202-0.48-1.154-0.889
			c0.049-0.41,0.644-0.677,1.329-0.595C121.297,39.175,121.813,39.574,121.764,39.982z"/>
		
			<linearGradient id="SVGID_33_" gradientUnits="userSpaceOnUse" x1="248.95" y1="241.6279" x2="250.7664" y2="241.6279" gradientTransform="matrix(0.7867 0.0802 0.0717 -0.7037 -90.8163 189.9438)">
			<stop  offset="0.0054" style="stop-color:#FFFFFF"/>
			<stop  offset="0.9839" style="stop-color:#A6CE39"/>
		</linearGradient>
		<path fill="url(#SVGID_33_)" d="M123.788,40.023c-0.023,0.236-0.364,0.395-0.759,0.354c-0.396-0.041-0.695-0.265-0.671-0.5
			c0.023-0.236,0.364-0.395,0.759-0.354C123.511,39.563,123.812,39.787,123.788,40.023z"/>
	</g>
	<g>
		
			<linearGradient id="SVGID_34_" gradientUnits="userSpaceOnUse" x1="252.1345" y1="183.124" x2="259.3279" y2="183.124" gradientTransform="matrix(0.8863 0.4631 0.4631 -0.8863 -178.1945 93.1658)">
			<stop  offset="0" style="stop-color:#A6CE39"/>
			<stop  offset="0.3925" style="stop-color:#94BF3D"/>
			<stop  offset="0.9839" style="stop-color:#78A842"/>
		</linearGradient>
		<path fill="url(#SVGID_34_)" d="M136.453,50.958c-0.521,0.998-2.372,1.062-4.132,0.142c-1.761-0.919-2.765-2.475-2.244-3.474
			c0.522-0.999,2.373-1.062,4.133-0.142C135.97,48.403,136.976,49.958,136.453,50.958z"/>
		
			<radialGradient id="SVGID_35_" cx="252.1277" cy="182.1631" r="2.2131" gradientTransform="matrix(1.0013 0.5232 0.4862 -0.9304 -207.066 87.4335)" gradientUnits="userSpaceOnUse">
			<stop  offset="0" style="stop-color:#FFFFFF"/>
			<stop  offset="1" style="stop-color:#A6CE39"/>
		</radialGradient>
		<path fill="url(#SVGID_35_)" d="M135.575,50.362c-0.415,0.793-1.971,0.798-3.477,0.012c-1.506-0.787-2.391-2.067-1.976-2.861
			c0.415-0.793,1.971-0.799,3.477-0.012S135.99,49.568,135.575,50.362z"/>
		
			<linearGradient id="SVGID_36_" gradientUnits="userSpaceOnUse" x1="260.2302" y1="229.7314" x2="262.3035" y2="229.7314" gradientTransform="matrix(0.7853 0.0932 0.0834 -0.7024 -92.5486 184.872)">
			<stop  offset="0.0054" style="stop-color:#FFFFFF"/>
			<stop  offset="0.9839" style="stop-color:#A6CE39"/>
		</linearGradient>
		<path fill="url(#SVGID_36_)" d="M132.6,47.955c-0.032,0.27-0.422,0.444-0.872,0.391c-0.45-0.054-0.788-0.315-0.756-0.583
			c0.03-0.27,0.422-0.444,0.872-0.39C132.292,47.425,132.632,47.687,132.6,47.955z"/>
		
			<linearGradient id="SVGID_37_" gradientUnits="userSpaceOnUse" x1="263.3513" y1="231.8887" x2="264.5457" y2="231.8887" gradientTransform="matrix(0.7867 0.0802 0.0717 -0.7037 -90.8163 189.9438)">
			<stop  offset="0.0054" style="stop-color:#FFFFFF"/>
			<stop  offset="0.9839" style="stop-color:#A6CE39"/>
		</linearGradient>
		<path fill="url(#SVGID_37_)" d="M133.927,47.981c-0.017,0.155-0.239,0.259-0.498,0.233c-0.26-0.027-0.457-0.173-0.441-0.328
			c0.016-0.155,0.239-0.26,0.498-0.233C133.746,47.68,133.942,47.827,133.927,47.981z"/>
	</g>
</g>
<g>
	
		<linearGradient id="SVGID_38_" gradientUnits="userSpaceOnUse" x1="188.7839" y1="143.0957" x2="188.7839" y2="15.0893" gradientTransform="matrix(1 0 0 -1 -0.02 200.0947)">
		<stop  offset="0" style="stop-color:#A6CE39"/>
		<stop  offset="1" style="stop-color:#78A842"/>
	</linearGradient>
	<path fill="url(#SVGID_38_)" d="M214.938,101.902c-1.5-10.649-11.699-18.75-23.399-18.75c-21.148,0-29.099,18-29.099,36.75
		c0,17.85,7.949,35.849,29.099,35.849c14.399,0,22.499-9.899,24.299-23.999h22.8c-2.4,26.7-20.85,43.799-47.099,43.799
		c-33.147,0-52.647-24.75-52.647-55.648c0-31.798,19.5-56.548,52.647-56.548c23.549,0,43.349,13.799,46.198,38.548H214.938
		L214.938,101.902z"/>
	
		<linearGradient id="SVGID_39_" gradientUnits="userSpaceOnUse" x1="82.7546" y1="155.7852" x2="82.7546" y2="-28.3866" gradientTransform="matrix(1 0 0 -1 -0.02 200.0947)">
		<stop  offset="0" style="stop-color:#A6CE39"/>
		<stop  offset="1" style="stop-color:#78A842"/>
	</linearGradient>
	<path fill="url(#SVGID_39_)" d="M88.088,149.583H41.483v-20.834l47.864-65.396h19.994v67.48h14.644v18.751h-14.644v25.966H88.088
		V149.583z M88.088,91.884h-0.473l-28.498,38.949h28.971V91.884z"/>
</g>
<g>
	
		<linearGradient id="SVGID_40_" gradientUnits="userSpaceOnUse" x1="220.448" y1="106.7842" x2="235.9861" y2="106.7842" gradientTransform="matrix(0.98 0.1989 0.1989 -0.98 -38.5058 133.4425)">
		<stop  offset="0" style="stop-color:#A6CE39"/>
		<stop  offset="0.3925" style="stop-color:#94BF3D"/>
		<stop  offset="0.9839" style="stop-color:#78A842"/>
	</linearGradient>
	<path fill="url(#SVGID_40_)" d="M214.001,75.731c-0.483,2.385-4.285,3.628-8.49,2.774s-7.222-3.479-6.737-5.865
		c0.483-2.386,4.286-3.628,8.491-2.774C211.468,70.719,214.485,73.345,214.001,75.731z"/>
	
		<radialGradient id="SVGID_41_" cx="228.0447" cy="109.1475" r="4.781" gradientTransform="matrix(1.1072 0.2247 0.2088 -1.0288 -67.1166 136.0102)" gradientUnits="userSpaceOnUse">
		<stop  offset="0" style="stop-color:#FFFFFF"/>
		<stop  offset="1" style="stop-color:#A6CE39"/>
	</radialGradient>
	<path fill="url(#SVGID_41_)" d="M211.822,75.022c-0.384,1.896-3.612,2.841-7.207,2.111c-3.596-0.729-6.199-2.858-5.814-4.753
		c0.386-1.896,3.612-2.841,7.207-2.111C209.604,70.999,212.207,73.126,211.822,75.022z"/>
	
		<linearGradient id="SVGID_42_" gradientUnits="userSpaceOnUse" x1="188.9197" y1="144.875" x2="193.3992" y2="144.875" gradientTransform="matrix(0.7803 -0.1284 -0.1149 -0.6979 69.9415 197.7539)">
		<stop  offset="0.0054" style="stop-color:#FFFFFF"/>
		<stop  offset="0.9839" style="stop-color:#A6CE39"/>
	</linearGradient>
	<path fill="url(#SVGID_42_)" d="M204.205,71.812c0.095,0.577-0.609,1.174-1.575,1.333s-1.824-0.182-1.92-0.757
		c-0.095-0.577,0.61-1.175,1.575-1.333C203.25,70.896,204.11,71.236,204.205,71.812z"/>
	
		<linearGradient id="SVGID_43_" gradientUnits="userSpaceOnUse" x1="195.1228" y1="147.9414" x2="197.7009" y2="147.9414" gradientTransform="matrix(0.778 -0.1413 -0.1264 -0.6959 71.8656 201.9593)">
		<stop  offset="0.0054" style="stop-color:#FFFFFF"/>
		<stop  offset="0.9839" style="stop-color:#A6CE39"/>
	</linearGradient>
	<path fill="url(#SVGID_43_)" d="M206.976,71.071c0.061,0.331-0.34,0.681-0.895,0.781c-0.553,0.101-1.051-0.087-1.11-0.417
		c-0.061-0.331,0.34-0.681,0.894-0.781C206.418,70.553,206.915,70.74,206.976,71.071z"/>
</g>
<g>
	
		<linearGradient id="SVGID_44_" gradientUnits="userSpaceOnUse" x1="292.3142" y1="136.0898" x2="302.448" y2="136.0898" gradientTransform="matrix(0.8598 0.5107 0.5107 -0.8598 -103.3049 48.5643)">
		<stop  offset="0" style="stop-color:#A6CE39"/>
		<stop  offset="0.3925" style="stop-color:#94BF3D"/>
		<stop  offset="0.9839" style="stop-color:#78A842"/>
	</linearGradient>
	<path fill="url(#SVGID_44_)" d="M226.241,86.014c-0.811,1.364-3.418,1.313-5.825-0.117c-2.406-1.429-3.699-3.694-2.888-5.059
		c0.811-1.365,3.419-1.313,5.825,0.116C225.759,82.383,227.052,84.649,226.241,86.014z"/>
	
		<radialGradient id="SVGID_45_" cx="289.0486" cy="137.5732" r="3.1174" gradientTransform="matrix(0.9713 0.577 0.5361 -0.9026 -131.6938 41.6801)" gradientUnits="userSpaceOnUse">
		<stop  offset="0" style="stop-color:#FFFFFF"/>
		<stop  offset="1" style="stop-color:#A6CE39"/>
	</radialGradient>
	<path fill="url(#SVGID_45_)" d="M225.052,85.109c-0.646,1.085-2.835,0.974-4.893-0.248c-2.058-1.223-3.203-3.093-2.559-4.177
		s2.834-0.973,4.892,0.249S225.696,84.025,225.052,85.109z"/>
	
		<linearGradient id="SVGID_46_" gradientUnits="userSpaceOnUse" x1="287.4939" y1="147.4551" x2="290.4138" y2="147.4551" gradientTransform="matrix(0.779 0.1359 0.1215 -0.6968 -23.0974 144.7762)">
		<stop  offset="0.0054" style="stop-color:#FFFFFF"/>
		<stop  offset="0.9839" style="stop-color:#A6CE39"/>
	</linearGradient>
	<path fill="url(#SVGID_46_)" d="M221.051,81.496c-0.064,0.376-0.628,0.592-1.256,0.482c-0.629-0.109-1.085-0.504-1.02-0.879
		c0.064-0.376,0.628-0.592,1.256-0.482C220.66,80.727,221.116,81.121,221.051,81.496z"/>
	
		<linearGradient id="SVGID_47_" gradientUnits="userSpaceOnUse" x1="289.8035" y1="147.5176" x2="291.4832" y2="147.5176" gradientTransform="matrix(0.7812 0.1229 0.1099 -0.6987 -21.0029 148.8808)">
		<stop  offset="0.0054" style="stop-color:#FFFFFF"/>
		<stop  offset="0.9839" style="stop-color:#A6CE39"/>
	</linearGradient>
	<path fill="url(#SVGID_47_)" d="M222.916,81.634c-0.034,0.218-0.354,0.347-0.718,0.289c-0.362-0.057-0.629-0.279-0.595-0.495
		c0.034-0.217,0.355-0.347,0.718-0.289C222.684,81.196,222.95,81.417,222.916,81.634z"/>
</g>
<g>
	
		<linearGradient id="SVGID_48_" gradientUnits="userSpaceOnUse" x1="509.4675" y1="-27.4375" x2="524.0476" y2="-27.4375" gradientTransform="matrix(0.5339 0.8455 0.8455 -0.5339 -153.6227 -374.5417)">
		<stop  offset="0" style="stop-color:#A6CE39"/>
		<stop  offset="0.3925" style="stop-color:#94BF3D"/>
		<stop  offset="0.9839" style="stop-color:#78A842"/>
	</linearGradient>
	<path fill="url(#SVGID_48_)" d="M102.883,83.239c-2.312,1.338-5.895-0.357-7.998-3.79c-2.102-3.431-1.931-7.3,0.385-8.638
		c2.313-1.339,5.894,0.359,7.996,3.789C105.368,78.034,105.196,81.901,102.883,83.239z"/>
	
		<radialGradient id="SVGID_49_" cx="498.0457" cy="41.3979" r="4.7802" gradientTransform="matrix(0.5537 0.9037 0.9978 -0.5771 -217.456 -347.4289)" gradientUnits="userSpaceOnUse">
		<stop  offset="0" style="stop-color:#FFFFFF"/>
		<stop  offset="1" style="stop-color:#A6CE39"/>
	</radialGradient>
	<path fill="url(#SVGID_49_)" d="M102.017,81.276c-1.839,1.063-4.787-0.453-6.584-3.39c-1.801-2.933-1.769-6.175,0.069-7.238
		c1.839-1.063,4.787,0.454,6.585,3.389C103.886,76.972,103.854,80.211,102.017,81.276z"/>
	
		<linearGradient id="SVGID_50_" gradientUnits="userSpaceOnUse" x1="471.0632" y1="-177.7476" x2="475.406" y2="-177.7476" gradientTransform="matrix(0.6323 0.4749 0.4248 -0.5655 -125.5342 -252.3373)">
		<stop  offset="0.0054" style="stop-color:#FFFFFF"/>
		<stop  offset="0.9839" style="stop-color:#A6CE39"/>
	</linearGradient>
	<path fill="url(#SVGID_50_)" d="M99.593,73.897c-0.415,0.467-1.385,0.408-2.163-0.133c-0.78-0.539-1.069-1.357-0.655-1.822
		c0.419-0.468,1.39-0.408,2.167,0.131C99.72,72.614,100.011,73.43,99.593,73.897z"/>
	
		<linearGradient id="SVGID_51_" gradientUnits="userSpaceOnUse" x1="470.7166" y1="-178.6514" x2="473.2224" y2="-178.6514" gradientTransform="matrix(0.6401 0.4644 0.4154 -0.5725 -126.6531 -246.7612)">
		<stop  offset="0.0054" style="stop-color:#FFFFFF"/>
		<stop  offset="0.9839" style="stop-color:#A6CE39"/>
	</linearGradient>
	<path fill="url(#SVGID_51_)" d="M102.067,75.249c-0.236,0.271-0.796,0.246-1.25-0.059c-0.455-0.301-0.632-0.768-0.396-1.039
		c0.237-0.272,0.796-0.246,1.251,0.059C102.127,74.511,102.303,74.977,102.067,75.249z"/>
</g>
<g>
	
		<linearGradient id="SVGID_52_" gradientUnits="userSpaceOnUse" x1="937.4451" y1="396.1367" x2="942.5769" y2="396.1367" gradientTransform="matrix(-0.538 0.843 0.843 0.538 269.9675 -912.1987)">
		<stop  offset="0" style="stop-color:#A6CE39"/>
		<stop  offset="0.3925" style="stop-color:#94BF3D"/>
		<stop  offset="0.9839" style="stop-color:#78A842"/>
	</linearGradient>
	<path fill="url(#SVGID_52_)" d="M97.483,95.902c-1.146-1.02-1.757-2.988-1.368-4.396c0.386-1.408,1.627-1.724,2.771-0.703
		c1.144,1.021,1.756,2.987,1.367,4.396C99.868,96.607,98.626,96.922,97.483,95.902z"/>
	
		<radialGradient id="SVGID_53_" cx="1472.8923" cy="182.1582" r="3.1182" gradientTransform="matrix(-0.1565 0.5684 0.7562 0.6743 190.5808 -866.218)" gradientUnits="userSpaceOnUse">
		<stop  offset="0" style="stop-color:#FFFFFF"/>
		<stop  offset="1" style="stop-color:#A6CE39"/>
	</radialGradient>
	<path fill="url(#SVGID_53_)" d="M97.811,95.266c-0.908-0.811-1.377-2.443-1.046-3.648c0.331-1.203,1.338-1.522,2.246-0.713
		c0.907,0.811,1.376,2.443,1.045,3.646C99.724,95.756,98.719,96.074,97.811,95.266z"/>
	
		<linearGradient id="SVGID_54_" gradientUnits="userSpaceOnUse" x1="1166.031" y1="164.9434" x2="1168.0115" y2="164.9434" gradientTransform="matrix(-0.1607 0.7743 0.6925 0.1438 172.4787 -834.861)">
		<stop  offset="0.0054" style="stop-color:#FFFFFF"/>
		<stop  offset="0.9839" style="stop-color:#A6CE39"/>
	</linearGradient>
	<path fill="url(#SVGID_54_)" d="M99.308,93.289c-0.275-0.161-0.563-0.652-0.646-1.1c-0.082-0.445,0.078-0.675,0.354-0.515
		c0.275,0.161,0.563,0.653,0.645,1.097C99.743,93.218,99.583,93.449,99.308,93.289z"/>
	
		<linearGradient id="SVGID_55_" gradientUnits="userSpaceOnUse" x1="1168.6003" y1="151.7207" x2="1169.7556" y2="151.7207" gradientTransform="matrix(-0.1479 0.7768 0.6948 0.1323 167.0898 -834.0924)">
		<stop  offset="0.0054" style="stop-color:#FFFFFF"/>
		<stop  offset="0.9839" style="stop-color:#A6CE39"/>
	</linearGradient>
	<path fill="url(#SVGID_55_)" d="M99.677,94.666c-0.158-0.09-0.327-0.373-0.379-0.631c-0.051-0.26,0.035-0.396,0.193-0.307
		c0.159,0.09,0.328,0.373,0.378,0.632C99.922,94.62,99.834,94.756,99.677,94.666z"/>
</g>
<text transform="matrix(1 0 0 1 -249.6404 243)" fill="#12AD00" font-family="'HelveticaNeueLTStd-Bd'" font-size="40">Crop Connectivity under Climate Change</text>
</svg>
